# xmcd
#
# Track frame offsets:
#	150
#	12283
#	30479
#	49976
#	70271
#	80838
#	96739
#	122682
#	136761
#	159688
#	183912
#	198753
#	209605
#	223117
#	234073
#	252790
#
# Disc length: 3592 seconds
#
# Revision: 0
# Processed by: cddbd v1.5.2PL0 Copyright (c) Steve Scherf et al.
# Submitted via: audiograbber 1.80
#
DISCID=e10e0610
DTITLE=Various Artist - american blues legends 1973/74
DYEAR=1974
DGENRE=Blues
TTITLE0=big john wrencher - big john's boogie
TTITLE1=big john wrencher - i'm a root man
TTITLE2=big john wrencher - how many more years?
TTITLE3=cousin joe from new orleans - i can't lose with the stuff i use
TTITLE4=cousin joe from new orleans - problems
TTITLE5=doctor ross - it seems like a dream
TTITLE6=doctor ross - on my way to school
TTITLE7=doctor ross - boogie disease no. 2
TTITLE8=eddie 'playboy' taylor - i used to have some friends
TTITLE9=eddie 'playboy' taylor - i know my baby
TTITLE10=eddie 'playboy' taylor - you don't love me
TTITLE11=g. p. jackson - 12th street boogie
TTITLE12=g. p. jackson - a letter dressed in red
TTITLE13=g. p. jackson - leavin' kansas city
TTITLE14=cousin joe from new orleans - railroad avenue
TTITLE15=cousin joe from new orleans - blues legends '74
EXTD=
EXTT0=
EXTT1=
EXTT2=
EXTT3=
EXTT4=
EXTT5=
EXTT6=
EXTT7=
EXTT8=
EXTT9=
EXTT10=
EXTT11=
EXTT12=
EXTT13=
EXTT14=
EXTT15=
PLAYORDER=
